<svg id="name" width="267" height="39" viewBox="0 0 267 39" fill="none" xmlns="http://www.w3.org/2000/svg">
<path d="M18.0664 26.9336V30H3.00781V26.9336H18.0664ZM3.76953 1.5625V30H0V1.5625H3.76953ZM16.0742 13.7891V16.8555H3.00781V13.7891H16.0742ZM17.8711 1.5625V4.64844H3.00781V1.5625H17.8711Z" fill="black"/>
<path d="M34.4922 24.3945C34.4922 23.8737 34.375 23.3919 34.1406 22.9492C33.9193 22.4935 33.457 22.0833 32.7539 21.7188C32.0638 21.3411 31.0221 21.0156 29.6289 20.7422C28.457 20.4948 27.3958 20.2018 26.4453 19.8633C25.5078 19.5247 24.707 19.1146 24.043 18.6328C23.3919 18.151 22.8906 17.5846 22.5391 16.9336C22.1875 16.2826 22.0117 15.5208 22.0117 14.6484C22.0117 13.8151 22.194 13.0273 22.5586 12.2852C22.9362 11.543 23.4635 10.8854 24.1406 10.3125C24.8307 9.73958 25.6576 9.29036 26.6211 8.96484C27.5846 8.63932 28.6589 8.47656 29.8438 8.47656C31.5365 8.47656 32.9818 8.77604 34.1797 9.375C35.3776 9.97396 36.2956 10.7747 36.9336 11.7773C37.5716 12.7669 37.8906 13.8672 37.8906 15.0781H34.2773C34.2773 14.4922 34.1016 13.9258 33.75 13.3789C33.4115 12.819 32.9102 12.3568 32.2461 11.9922C31.5951 11.6276 30.7943 11.4453 29.8438 11.4453C28.8411 11.4453 28.0273 11.6016 27.4023 11.9141C26.7904 12.2135 26.3411 12.5977 26.0547 13.0664C25.7812 13.5352 25.6445 14.0299 25.6445 14.5508C25.6445 14.9414 25.7096 15.293 25.8398 15.6055C25.9831 15.9049 26.2305 16.1849 26.582 16.4453C26.9336 16.6927 27.4284 16.9271 28.0664 17.1484C28.7044 17.3698 29.5182 17.5911 30.5078 17.8125C32.2396 18.2031 33.6654 18.6719 34.7852 19.2188C35.9049 19.7656 36.7383 20.4362 37.2852 21.2305C37.832 22.0247 38.1055 22.9883 38.1055 24.1211C38.1055 25.0456 37.9102 25.8919 37.5195 26.6602C37.1419 27.4284 36.5885 28.0924 35.8594 28.6523C35.1432 29.1992 34.2839 29.6289 33.2812 29.9414C32.2917 30.2409 31.1784 30.3906 29.9414 30.3906C28.0794 30.3906 26.5039 30.0586 25.2148 29.3945C23.9258 28.7305 22.9492 27.8711 22.2852 26.8164C21.6211 25.7617 21.2891 24.6484 21.2891 23.4766H24.9219C24.974 24.4661 25.2604 25.2539 25.7812 25.8398C26.3021 26.4128 26.9401 26.8229 27.6953 27.0703C28.4505 27.3047 29.1992 27.4219 29.9414 27.4219C30.931 27.4219 31.7578 27.2917 32.4219 27.0312C33.099 26.7708 33.6133 26.4128 33.9648 25.957C34.3164 25.5013 34.4922 24.9805 34.4922 24.3945Z" fill="black"/>
<path d="M51.6992 8.86719V11.6406H40.2734V8.86719H51.6992ZM44.1406 3.73047H47.7539V24.7656C47.7539 25.4818 47.8646 26.0221 48.0859 26.3867C48.3073 26.7513 48.5938 26.9922 48.9453 27.1094C49.2969 27.2266 49.6745 27.2852 50.0781 27.2852C50.3776 27.2852 50.6901 27.2591 51.0156 27.207C51.3542 27.1419 51.6081 27.0898 51.7773 27.0508L51.7969 30C51.5104 30.0911 51.1328 30.1758 50.6641 30.2539C50.2083 30.3451 49.6549 30.3906 49.0039 30.3906C48.1185 30.3906 47.3047 30.2148 46.5625 29.8633C45.8203 29.5117 45.2279 28.9258 44.7852 28.1055C44.3555 27.2721 44.1406 26.1523 44.1406 24.7461V3.73047Z" fill="black"/>
<path d="M64.707 30.3906C63.2357 30.3906 61.901 30.1432 60.7031 29.6484C59.5182 29.1406 58.4961 28.431 57.6367 27.5195C56.7904 26.6081 56.1393 25.5273 55.6836 24.2773C55.2279 23.0273 55 21.6602 55 20.1758V19.3555C55 17.6367 55.2539 16.1068 55.7617 14.7656C56.2695 13.4115 56.9596 12.2656 57.832 11.3281C58.7044 10.3906 59.694 9.68099 60.8008 9.19922C61.9076 8.71745 63.0534 8.47656 64.2383 8.47656C65.7487 8.47656 67.0508 8.73698 68.1445 9.25781C69.2513 9.77865 70.1562 10.5078 70.8594 11.4453C71.5625 12.3698 72.0833 13.4635 72.4219 14.7266C72.7604 15.9766 72.9297 17.3438 72.9297 18.8281V20.4492H57.1484V17.5H69.3164V17.2266C69.2643 16.2891 69.069 15.3776 68.7305 14.4922C68.4049 13.6068 67.8841 12.8776 67.168 12.3047C66.4518 11.7318 65.4753 11.4453 64.2383 11.4453C63.418 11.4453 62.6628 11.6211 61.9727 11.9727C61.2826 12.3112 60.6901 12.819 60.1953 13.4961C59.7005 14.1732 59.3164 15 59.043 15.9766C58.7695 16.9531 58.6328 18.0794 58.6328 19.3555V20.1758C58.6328 21.1784 58.7695 22.1224 59.043 23.0078C59.3294 23.8802 59.7396 24.6484 60.2734 25.3125C60.8203 25.9766 61.4779 26.4974 62.2461 26.875C63.0273 27.2526 63.9128 27.4414 64.9023 27.4414C66.1784 27.4414 67.2591 27.181 68.1445 26.6602C69.0299 26.1393 69.8047 25.4427 70.4688 24.5703L72.6562 26.3086C72.2005 26.9987 71.6211 27.6562 70.918 28.2812C70.2148 28.9062 69.349 29.4141 68.3203 29.8047C67.3047 30.1953 66.1003 30.3906 64.707 30.3906Z" fill="black"/>
<path d="M77.1289 0H80.7617V25.8984L80.4492 30H77.1289V0ZM95.0391 19.2578V19.668C95.0391 21.2044 94.8568 22.6302 94.4922 23.9453C94.1276 25.2474 93.5938 26.3802 92.8906 27.3438C92.1875 28.3073 91.3281 29.056 90.3125 29.5898C89.2969 30.1237 88.1315 30.3906 86.8164 30.3906C85.4753 30.3906 84.2969 30.1628 83.2812 29.707C82.2786 29.2383 81.4323 28.5677 80.7422 27.6953C80.0521 26.8229 79.4987 25.7682 79.082 24.5312C78.6784 23.2943 78.3984 21.901 78.2422 20.3516V18.5547C78.3984 16.9922 78.6784 15.5924 79.082 14.3555C79.4987 13.1185 80.0521 12.0638 80.7422 11.1914C81.4323 10.306 82.2786 9.63542 83.2812 9.17969C84.2839 8.71094 85.4492 8.47656 86.7773 8.47656C88.1055 8.47656 89.2839 8.73698 90.3125 9.25781C91.3411 9.76562 92.2005 10.4948 92.8906 11.4453C93.5938 12.3958 94.1276 13.5352 94.4922 14.8633C94.8568 16.1784 95.0391 17.6432 95.0391 19.2578ZM91.4062 19.668V19.2578C91.4062 18.2031 91.3086 17.2135 91.1133 16.2891C90.918 15.3516 90.6055 14.5312 90.1758 13.8281C89.7461 13.112 89.1797 12.5521 88.4766 12.1484C87.7734 11.7318 86.9076 11.5234 85.8789 11.5234C84.9674 11.5234 84.1732 11.6797 83.4961 11.9922C82.832 12.3047 82.2656 12.7279 81.7969 13.2617C81.3281 13.7826 80.944 14.3815 80.6445 15.0586C80.3581 15.7227 80.1432 16.4128 80 17.1289V21.8359C80.2083 22.7474 80.5469 23.6263 81.0156 24.4727C81.4974 25.306 82.1354 25.9896 82.9297 26.5234C83.737 27.0573 84.7331 27.3242 85.918 27.3242C86.8945 27.3242 87.7279 27.1289 88.418 26.7383C89.1211 26.3346 89.6875 25.7812 90.1172 25.0781C90.5599 24.375 90.8854 23.5612 91.0938 22.6367C91.3021 21.7122 91.4062 20.7227 91.4062 19.668Z" fill="black"/>
<path d="M112.07 26.3867V15.5078C112.07 14.6745 111.901 13.9518 111.562 13.3398C111.237 12.7148 110.742 12.2331 110.078 11.8945C109.414 11.556 108.594 11.3867 107.617 11.3867C106.706 11.3867 105.905 11.543 105.215 11.8555C104.538 12.168 104.004 12.5781 103.613 13.0859C103.236 13.5938 103.047 14.1406 103.047 14.7266H99.4336C99.4336 13.9714 99.6289 13.2227 100.02 12.4805C100.41 11.7383 100.97 11.0677 101.699 10.4688C102.441 9.85677 103.327 9.375 104.355 9.02344C105.397 8.65885 106.556 8.47656 107.832 8.47656C109.368 8.47656 110.723 8.73698 111.895 9.25781C113.079 9.77865 114.004 10.5664 114.668 11.6211C115.345 12.6628 115.684 13.9714 115.684 15.5469V25.3906C115.684 26.0938 115.742 26.8424 115.859 27.6367C115.99 28.431 116.178 29.1146 116.426 29.6875V30H112.656C112.474 29.5833 112.331 29.0299 112.227 28.3398C112.122 27.6367 112.07 26.9857 112.07 26.3867ZM112.695 17.1875L112.734 19.7266H109.082C108.053 19.7266 107.135 19.8112 106.328 19.9805C105.521 20.1367 104.844 20.3776 104.297 20.7031C103.75 21.0286 103.333 21.4388 103.047 21.9336C102.76 22.4154 102.617 22.9818 102.617 23.6328C102.617 24.2969 102.767 24.9023 103.066 25.4492C103.366 25.9961 103.815 26.4323 104.414 26.7578C105.026 27.0703 105.775 27.2266 106.66 27.2266C107.767 27.2266 108.743 26.9922 109.59 26.5234C110.436 26.0547 111.107 25.4818 111.602 24.8047C112.109 24.1276 112.383 23.4701 112.422 22.832L113.965 24.5703C113.874 25.1172 113.626 25.7227 113.223 26.3867C112.819 27.0508 112.279 27.6888 111.602 28.3008C110.938 28.8997 110.143 29.401 109.219 29.8047C108.307 30.1953 107.279 30.3906 106.133 30.3906C104.701 30.3906 103.444 30.1107 102.363 29.5508C101.296 28.9909 100.462 28.2422 99.8633 27.3047C99.2773 26.3542 98.9844 25.293 98.9844 24.1211C98.9844 22.9883 99.2057 21.9922 99.6484 21.1328C100.091 20.2604 100.729 19.5378 101.562 18.9648C102.396 18.3789 103.398 17.9362 104.57 17.6367C105.742 17.3372 107.051 17.1875 108.496 17.1875H112.695Z" fill="black"/>
<path d="M124.98 13.3789V30H121.367V8.86719H124.785L124.98 13.3789ZM124.121 18.6328L122.617 18.5742C122.63 17.1289 122.845 15.7943 123.262 14.5703C123.678 13.3333 124.264 12.2591 125.02 11.3477C125.775 10.4362 126.673 9.73307 127.715 9.23828C128.77 8.73047 129.935 8.47656 131.211 8.47656C132.253 8.47656 133.19 8.61979 134.023 8.90625C134.857 9.17969 135.566 9.6224 136.152 10.2344C136.751 10.8464 137.207 11.6406 137.52 12.6172C137.832 13.5807 137.988 14.7591 137.988 16.1523V30H134.355V16.1133C134.355 15.0065 134.193 14.1211 133.867 13.457C133.542 12.7799 133.066 12.2917 132.441 11.9922C131.816 11.6797 131.048 11.5234 130.137 11.5234C129.238 11.5234 128.418 11.7122 127.676 12.0898C126.947 12.4674 126.315 12.9883 125.781 13.6523C125.26 14.3164 124.85 15.0781 124.551 15.9375C124.264 16.7839 124.121 17.6823 124.121 18.6328Z" fill="black"/>
<path d="M171.113 20.957H174.863C174.668 22.7539 174.154 24.362 173.32 25.7812C172.487 27.2005 171.309 28.3268 169.785 29.1602C168.262 29.9805 166.361 30.3906 164.082 30.3906C162.415 30.3906 160.898 30.0781 159.531 29.4531C158.177 28.8281 157.012 27.9427 156.035 26.7969C155.059 25.638 154.303 24.2513 153.77 22.6367C153.249 21.0091 152.988 19.1992 152.988 17.207V14.375C152.988 12.3828 153.249 10.5794 153.77 8.96484C154.303 7.33724 155.065 5.94401 156.055 4.78516C157.057 3.6263 158.262 2.73438 159.668 2.10938C161.074 1.48438 162.656 1.17188 164.414 1.17188C166.562 1.17188 168.379 1.57552 169.863 2.38281C171.348 3.1901 172.5 4.3099 173.32 5.74219C174.154 7.16146 174.668 8.80859 174.863 10.6836H171.113C170.931 9.35547 170.592 8.21615 170.098 7.26562C169.603 6.30208 168.9 5.5599 167.988 5.03906C167.077 4.51823 165.885 4.25781 164.414 4.25781C163.151 4.25781 162.038 4.4987 161.074 4.98047C160.124 5.46224 159.323 6.14583 158.672 7.03125C158.034 7.91667 157.552 8.97786 157.227 10.2148C156.901 11.4518 156.738 12.8255 156.738 14.3359V17.207C156.738 18.6003 156.882 19.9089 157.168 21.1328C157.467 22.3568 157.917 23.431 158.516 24.3555C159.115 25.2799 159.876 26.0091 160.801 26.543C161.725 27.0638 162.819 27.3242 164.082 27.3242C165.684 27.3242 166.96 27.0703 167.91 26.5625C168.861 26.0547 169.577 25.3255 170.059 24.375C170.553 23.4245 170.905 22.2852 171.113 20.957Z" fill="black"/>
<path d="M183.066 0V30H179.453V0H183.066ZM182.207 18.6328L180.703 18.5742C180.716 17.1289 180.931 15.7943 181.348 14.5703C181.764 13.3333 182.35 12.2591 183.105 11.3477C183.861 10.4362 184.759 9.73307 185.801 9.23828C186.855 8.73047 188.021 8.47656 189.297 8.47656C190.339 8.47656 191.276 8.61979 192.109 8.90625C192.943 9.17969 193.652 9.6224 194.238 10.2344C194.837 10.8464 195.293 11.6406 195.605 12.6172C195.918 13.5807 196.074 14.7591 196.074 16.1523V30H192.441V16.1133C192.441 15.0065 192.279 14.1211 191.953 13.457C191.628 12.7799 191.152 12.2917 190.527 11.9922C189.902 11.6797 189.134 11.5234 188.223 11.5234C187.324 11.5234 186.504 11.7122 185.762 12.0898C185.033 12.4674 184.401 12.9883 183.867 13.6523C183.346 14.3164 182.936 15.0781 182.637 15.9375C182.35 16.7839 182.207 17.6823 182.207 18.6328Z" fill="black"/>
<path d="M213.945 26.3867V15.5078C213.945 14.6745 213.776 13.9518 213.438 13.3398C213.112 12.7148 212.617 12.2331 211.953 11.8945C211.289 11.556 210.469 11.3867 209.492 11.3867C208.581 11.3867 207.78 11.543 207.09 11.8555C206.413 12.168 205.879 12.5781 205.488 13.0859C205.111 13.5938 204.922 14.1406 204.922 14.7266H201.309C201.309 13.9714 201.504 13.2227 201.895 12.4805C202.285 11.7383 202.845 11.0677 203.574 10.4688C204.316 9.85677 205.202 9.375 206.23 9.02344C207.272 8.65885 208.431 8.47656 209.707 8.47656C211.243 8.47656 212.598 8.73698 213.77 9.25781C214.954 9.77865 215.879 10.5664 216.543 11.6211C217.22 12.6628 217.559 13.9714 217.559 15.5469V25.3906C217.559 26.0938 217.617 26.8424 217.734 27.6367C217.865 28.431 218.053 29.1146 218.301 29.6875V30H214.531C214.349 29.5833 214.206 29.0299 214.102 28.3398C213.997 27.6367 213.945 26.9857 213.945 26.3867ZM214.57 17.1875L214.609 19.7266H210.957C209.928 19.7266 209.01 19.8112 208.203 19.9805C207.396 20.1367 206.719 20.3776 206.172 20.7031C205.625 21.0286 205.208 21.4388 204.922 21.9336C204.635 22.4154 204.492 22.9818 204.492 23.6328C204.492 24.2969 204.642 24.9023 204.941 25.4492C205.241 25.9961 205.69 26.4323 206.289 26.7578C206.901 27.0703 207.65 27.2266 208.535 27.2266C209.642 27.2266 210.618 26.9922 211.465 26.5234C212.311 26.0547 212.982 25.4818 213.477 24.8047C213.984 24.1276 214.258 23.4701 214.297 22.832L215.84 24.5703C215.749 25.1172 215.501 25.7227 215.098 26.3867C214.694 27.0508 214.154 27.6888 213.477 28.3008C212.812 28.8997 212.018 29.401 211.094 29.8047C210.182 30.1953 209.154 30.3906 208.008 30.3906C206.576 30.3906 205.319 30.1107 204.238 29.5508C203.171 28.9909 202.337 28.2422 201.738 27.3047C201.152 26.3542 200.859 25.293 200.859 24.1211C200.859 22.9883 201.081 21.9922 201.523 21.1328C201.966 20.2604 202.604 19.5378 203.438 18.9648C204.271 18.3789 205.273 17.9362 206.445 17.6367C207.617 17.3372 208.926 17.1875 210.371 17.1875H214.57Z" fill="black"/>
<path d="M226.855 12.1875V30H223.242V8.86719H226.758L226.855 12.1875ZM233.457 8.75L233.438 12.1094C233.138 12.0443 232.852 12.0052 232.578 11.9922C232.318 11.9661 232.018 11.9531 231.68 11.9531C230.846 11.9531 230.111 12.0833 229.473 12.3438C228.835 12.6042 228.294 12.9688 227.852 13.4375C227.409 13.9062 227.057 14.4661 226.797 15.1172C226.549 15.7552 226.387 16.4583 226.309 17.2266L225.293 17.8125C225.293 16.5365 225.417 15.3385 225.664 14.2188C225.924 13.099 226.322 12.1094 226.855 11.25C227.389 10.3776 228.066 9.70052 228.887 9.21875C229.72 8.72396 230.71 8.47656 231.855 8.47656C232.116 8.47656 232.415 8.50911 232.754 8.57422C233.092 8.6263 233.327 8.6849 233.457 8.75Z" fill="black"/>
<path d="M240.41 12.1875V30H236.797V8.86719H240.312L240.41 12.1875ZM247.012 8.75L246.992 12.1094C246.693 12.0443 246.406 12.0052 246.133 11.9922C245.872 11.9661 245.573 11.9531 245.234 11.9531C244.401 11.9531 243.665 12.0833 243.027 12.3438C242.389 12.6042 241.849 12.9688 241.406 13.4375C240.964 13.9062 240.612 14.4661 240.352 15.1172C240.104 15.7552 239.941 16.4583 239.863 17.2266L238.848 17.8125C238.848 16.5365 238.971 15.3385 239.219 14.2188C239.479 13.099 239.876 12.1094 240.41 11.25C240.944 10.3776 241.621 9.70052 242.441 9.21875C243.275 8.72396 244.264 8.47656 245.41 8.47656C245.671 8.47656 245.97 8.50911 246.309 8.57422C246.647 8.6263 246.882 8.6849 247.012 8.75Z" fill="black"/>
<path d="M256.641 27.8125L262.52 8.86719H266.387L257.91 33.2617C257.715 33.7826 257.454 34.3424 257.129 34.9414C256.816 35.5534 256.413 36.1328 255.918 36.6797C255.423 37.2266 254.824 37.6693 254.121 38.0078C253.431 38.3594 252.604 38.5352 251.641 38.5352C251.354 38.5352 250.99 38.4961 250.547 38.418C250.104 38.3398 249.792 38.2747 249.609 38.2227L249.59 35.293C249.694 35.306 249.857 35.319 250.078 35.332C250.312 35.3581 250.475 35.3711 250.566 35.3711C251.387 35.3711 252.083 35.2604 252.656 35.0391C253.229 34.8307 253.711 34.4727 254.102 33.9648C254.505 33.4701 254.85 32.7865 255.137 31.9141L256.641 27.8125ZM252.324 8.86719L257.812 25.2734L258.75 29.082L256.152 30.4102L248.379 8.86719H252.324Z" fill="black"/>
</svg>
